<svg width="26" height="23" viewBox="0 0 26 23" fill="none" xmlns="http://www.w3.org/2000/svg">
<path d="M18.4997 12C18.0052 12.0001 17.5219 12.1468 17.1108 12.4215C16.6997 12.6963 16.3793 13.0868 16.1902 13.5436C16.001 14.0005 15.9516 14.5031 16.0481 14.9881C16.1446 15.473 16.3828 15.9184 16.7325 16.268C17.0822 16.6176 17.5277 16.8556 18.0126 16.952C18.4976 17.0484 19.0003 16.9988 19.457 16.8096C19.9138 16.6203 20.3042 16.2998 20.5789 15.8886C20.8535 15.4775 21.0001 14.9941 21 14.4996C20.9993 13.8368 20.7356 13.2013 20.2669 12.7326C19.7981 12.264 19.1625 12.0005 18.4997 12ZM18.4997 15.5403C18.2939 15.5402 18.0929 15.4791 17.9218 15.3648C17.7508 15.2505 17.6175 15.088 17.5388 14.8979C17.4602 14.7079 17.4396 14.4987 17.4797 14.297C17.5199 14.0952 17.619 13.9099 17.7644 13.7644C17.9099 13.6189 18.0952 13.5199 18.297 13.4797C18.4987 13.4396 18.7079 13.4601 18.8979 13.5388C19.088 13.6175 19.2505 13.7508 19.3648 13.9218C19.4791 14.0928 19.5402 14.2939 19.5403 14.4996C19.54 14.7755 19.4303 15.0401 19.2352 15.2352C19.0401 15.4303 18.7756 15.54 18.4997 15.5403Z" fill="#162C2A" stroke="#162C2A" stroke-width="0.5"/>
<path d="M25 8.98422C24.9987 8.89534 24.9768 8.80797 24.9361 8.72894C24.8149 8.02833 24.516 7.37051 24.0681 6.81834C23.6201 6.26618 23.0381 5.83813 22.3775 5.5751L18.4046 1.19229C18.3179 1.09751 18.2027 1.03352 18.0765 1.01C17.9502 0.986481 17.8197 1.00471 17.7047 1.06193L13.1902 3.33417L11.0989 1.71877C10.9973 1.64001 10.8725 1.59679 10.7439 1.59576C10.6153 1.59472 10.4899 1.63592 10.387 1.71303L5.62452 5.2803H5.14946C4.04934 5.28155 2.99462 5.71912 2.21672 6.49703C1.43881 7.27494 1.00124 8.32965 1 9.42978V17.8522C1.00124 18.9523 1.43881 20.007 2.21672 20.7849C2.99463 21.5628 4.04935 22.0004 5.14947 22.0016H20.8505C21.9507 22.0004 23.0054 21.5628 23.7833 20.7849C24.5612 20.007 24.9988 18.9523 25 17.8522V9.42978C25 9.3096 24.992 9.19132 24.982 9.07368C24.9904 9.04441 24.9965 9.01449 25 8.98422ZM17.8339 2.3136L20.5227 5.2803H15.7095L14.2221 4.13137L17.8339 2.3136ZM10.7338 2.92279L13.7862 5.2803H7.58661L10.7338 2.92279ZM5.14947 6.45619H20.8505C21.4561 6.45781 22.0467 6.64451 22.5432 6.99127C23.0397 7.33802 23.4184 7.82827 23.6284 8.39628H2.37168C2.58168 7.82827 2.9603 7.33803 3.45678 6.99127C3.95327 6.64451 4.54389 6.45781 5.14947 6.45619ZM20.8505 20.8258H5.14947C4.36109 20.8249 3.60523 20.5114 3.04775 19.9539C2.49028 19.3964 2.17672 18.6406 2.17588 17.8522V9.57217H23.8241V17.8522C23.8233 18.6406 23.5097 19.3964 22.9522 19.9539C22.3948 20.5114 21.6389 20.8249 20.8505 20.8258Z" fill="#162C2A" stroke="#162C2A" stroke-width="0.5"/>
</svg>
