<svg width="16" height="15" viewBox="0 0 16 15" fill="none" xmlns="http://www.w3.org/2000/svg">
<path d="M4.25743 0C3.16174 0 2.06609 0.429157 1.23935 1.29438C-0.414182 3.0248 -0.412049 5.79765 1.23935 7.52922L7.55106 14.1485C7.60851 14.2088 7.67761 14.2568 7.75416 14.2896C7.83071 14.3224 7.91313 14.3393 7.99641 14.3393C8.07969 14.3393 8.1621 14.3224 8.23865 14.2896C8.3152 14.2568 8.3843 14.2088 8.44176 14.1485C10.5472 11.945 12.6544 9.73909 14.7599 7.53562C16.4134 5.80517 16.4134 3.03124 14.7599 1.30079C13.1064 -0.429649 10.3772 -0.429686 8.7237 1.30079L7.99961 2.05051L7.27553 1.29438C6.44877 0.429161 5.35312 0 4.25743 0ZM4.25743 1.20467C5.02229 1.20467 5.79234 1.51985 6.39125 2.14663L7.55748 3.37052C7.61493 3.4308 7.68403 3.4788 7.76058 3.51159C7.83713 3.54438 7.91954 3.56128 8.00281 3.56128C8.08609 3.56128 8.1685 3.54438 8.24505 3.51159C8.3216 3.4788 8.3907 3.4308 8.44815 3.37052L9.60798 2.15303C10.8058 0.899463 12.6714 0.899492 13.8692 2.15303C15.067 3.40657 15.067 5.43624 13.8692 6.68978C11.913 8.73705 9.95583 10.7812 7.99961 12.8285L2.13003 6.68339C0.932858 5.42809 0.932222 3.40013 2.13003 2.14663C2.72892 1.51986 3.49257 1.20467 4.25743 1.20467Z" fill="#1A1A1A"/>
</svg>
