<svg width="40" height="40" viewBox="0 0 40 40" fill="none" xmlns="http://www.w3.org/2000/svg">
<rect width="40" height="40" rx="10" fill="#EAEAEA"/>
<path d="M14.3861 9C12.7426 9 11.0991 9.64374 9.85902 10.9416C7.37873 13.5372 7.38193 17.6965 9.85902 20.2938L19.3266 30.2228C19.4128 30.3132 19.5164 30.3852 19.6312 30.4344C19.7461 30.4836 19.8697 30.5089 19.9946 30.5089C20.1195 30.5089 20.2431 30.4836 20.358 30.4344C20.4728 30.3852 20.5765 30.3132 20.6626 30.2228C23.8209 26.9176 26.9815 23.6086 30.1398 20.3034C32.6201 17.7078 32.6201 13.5469 30.1398 10.9512C27.6596 8.35553 23.5658 8.35547 21.0856 10.9512L19.9994 12.0758L18.9133 10.9416C17.6731 9.64374 16.0297 9 14.3861 9ZM14.3861 10.807C15.5334 10.807 16.6885 11.2798 17.5869 12.2199L19.3362 14.0558C19.4224 14.1462 19.526 14.2182 19.6409 14.2674C19.7557 14.3166 19.8793 14.3419 20.0042 14.3419C20.1291 14.3419 20.2528 14.3166 20.3676 14.2674C20.4824 14.2182 20.586 14.1462 20.6722 14.0558L22.412 12.2295C24.2087 10.3492 27.0071 10.3492 28.8038 12.2295C30.6005 14.1099 30.6005 17.1544 28.8038 19.0347C25.8694 22.1056 22.9337 25.1719 19.9994 28.2427L11.195 19.0251C9.39929 17.1421 9.39833 14.1002 11.195 12.2199C12.0934 11.2798 13.2389 10.807 14.3861 10.807Z" fill="#162C2A"/>
</svg>
