<svg width="24" height="24" viewBox="0 0 24 24" fill="none" xmlns="http://www.w3.org/2000/svg">
<path d="M23.8829 7.08371C23.8695 6.076 23.6809 5.07831 23.3254 4.13527C23.0172 3.33982 22.5465 2.61741 21.9432 2.01419C21.34 1.41097 20.6176 0.940216 19.8222 0.631999C18.8912 0.282546 17.9078 0.0935908 16.9136 0.0731789C15.6337 0.0159664 15.2279 0 11.9787 0C8.72957 0 8.31312 8.92186e-08 7.04247 0.0731789C6.04878 0.0937409 5.06577 0.282694 4.13527 0.631999C3.33969 0.940001 2.61717 1.41068 2.01393 2.01393C1.41068 2.61717 0.940001 3.33969 0.631999 4.13527C0.281846 5.06548 0.0933006 6.04871 0.0745094 7.04247C0.0172968 8.32376 0 8.72957 0 11.9787C0 15.2279 -9.91318e-09 15.643 0.0745094 16.915C0.0944672 17.9102 0.282071 18.8921 0.631999 19.8248C0.940518 20.6202 1.41155 21.3424 2.01499 21.9454C2.61844 22.5484 3.34103 23.0188 4.1366 23.3268C5.06455 23.6903 6.04773 23.8927 7.0438 23.9255C8.32509 23.9827 8.7309 24 11.98 24C15.2292 24 15.6456 24 16.9163 23.9255C17.9104 23.9059 18.8939 23.7174 19.8248 23.368C20.6201 23.0594 21.3423 22.5885 21.9455 21.9854C22.5486 21.3822 23.0195 20.66 23.3281 19.8647C23.678 18.9334 23.8656 17.9514 23.8856 16.9549C23.9428 15.6749 23.9601 15.2691 23.9601 12.0186C23.9574 8.76949 23.9574 8.35703 23.8829 7.08371ZM11.9707 18.1231C8.57257 18.1231 5.81971 15.3702 5.81971 11.9721C5.81971 8.5739 8.57257 5.82104 11.9707 5.82104C13.6021 5.82104 15.1666 6.4691 16.3202 7.62264C17.4737 8.77618 18.1217 10.3407 18.1217 11.9721C18.1217 13.6034 17.4737 15.1679 16.3202 16.3215C15.1666 17.475 13.6021 18.1231 11.9707 18.1231ZM18.3666 7.02783C18.1782 7.02801 17.9916 6.99103 17.8175 6.91901C17.6434 6.84699 17.4852 6.74135 17.352 6.60812C17.2187 6.4749 17.1131 6.31671 17.0411 6.14262C16.9691 5.96852 16.9321 5.78193 16.9323 5.59353C16.9323 5.40526 16.9693 5.21883 17.0414 5.0449C17.1134 4.87096 17.219 4.71291 17.3522 4.57979C17.4853 4.44666 17.6433 4.34106 17.8173 4.26901C17.9912 4.19697 18.1776 4.15989 18.3659 4.15989C18.5542 4.15989 18.7406 4.19697 18.9145 4.26901C19.0885 4.34106 19.2465 4.44666 19.3796 4.57979C19.5128 4.71291 19.6184 4.87096 19.6904 5.0449C19.7625 5.21883 19.7995 5.40526 19.7995 5.59353C19.7995 6.38652 19.1582 7.02783 18.3666 7.02783Z" fill="white"/>
<path d="M11.9331 15.9677C14.1398 15.9677 15.9286 14.1788 15.9286 11.9721C15.9286 9.76544 14.1398 7.97656 11.9331 7.97656C9.72638 7.97656 7.9375 9.76544 7.9375 11.9721C7.9375 14.1788 9.72638 15.9677 11.9331 15.9677Z" fill="white"/>
</svg>
