<svg width="85" height="40" viewBox="0 0 85 40" fill="none" xmlns="http://www.w3.org/2000/svg">
<rect width="85" height="40" rx="10" fill="#EAEAEA"/>
<path fill-rule="evenodd" clip-rule="evenodd" d="M22.0514 21.8525H17C13.6863 21.8525 11 24.5388 11 27.8526V27.9996C11 29.1042 11.8954 29.9996 13 29.9996H26.0513C27.1559 29.9996 28.0513 29.1042 28.0513 27.9996V27.8526C28.0513 24.5388 25.3651 21.8525 22.0514 21.8525ZM17 19.8525C12.5817 19.8525 9 23.4343 9 27.8526V27.9996C9 30.2088 10.7909 31.9996 13 31.9996H26.0513C28.2605 31.9996 30.0513 30.2088 30.0513 27.9996V27.8526C30.0513 23.4343 26.4697 19.8525 22.0514 19.8525H17Z" fill="#162C2A"/>
<path fill-rule="evenodd" clip-rule="evenodd" d="M19.5269 16.2406C21.2486 16.2406 22.6455 14.8442 22.6455 13.1203C22.6455 11.3964 21.2486 10 19.5269 10C17.8051 10 16.4082 11.3964 16.4082 13.1203C16.4082 14.8442 17.8051 16.2406 19.5269 16.2406ZM19.5269 18.2406C22.3538 18.2406 24.6455 15.9482 24.6455 13.1203C24.6455 10.2924 22.3538 8 19.5269 8C16.6999 8 14.4082 10.2924 14.4082 13.1203C14.4082 15.9482 16.6999 18.2406 19.5269 18.2406Z" fill="#162C2A"/>
<path d="M44.508 22.668H47.268V24H42.828V15.624H44.508V22.668ZM51.2878 24.108C50.6478 24.108 50.0718 23.968 49.5598 23.688C49.0478 23.4 48.6438 22.996 48.3478 22.476C48.0598 21.956 47.9158 21.356 47.9158 20.676C47.9158 19.996 48.0638 19.396 48.3598 18.876C48.6638 18.356 49.0758 17.956 49.5958 17.676C50.1158 17.388 50.6958 17.244 51.3358 17.244C51.9758 17.244 52.5558 17.388 53.0758 17.676C53.5958 17.956 54.0038 18.356 54.2998 18.876C54.6038 19.396 54.7558 19.996 54.7558 20.676C54.7558 21.356 54.5998 21.956 54.2878 22.476C53.9838 22.996 53.5678 23.4 53.0398 23.688C52.5198 23.968 51.9358 24.108 51.2878 24.108ZM51.2878 22.644C51.5918 22.644 51.8758 22.572 52.1398 22.428C52.4118 22.276 52.6278 22.052 52.7878 21.756C52.9478 21.46 53.0278 21.1 53.0278 20.676C53.0278 20.044 52.8598 19.56 52.5238 19.224C52.1958 18.88 51.7918 18.708 51.3118 18.708C50.8318 18.708 50.4278 18.88 50.0998 19.224C49.7798 19.56 49.6198 20.044 49.6198 20.676C49.6198 21.308 49.7758 21.796 50.0878 22.14C50.4078 22.476 50.8078 22.644 51.2878 22.644ZM58.5922 17.244C59.0882 17.244 59.5242 17.344 59.9002 17.544C60.2762 17.736 60.5722 17.988 60.7882 18.3V17.352H62.4802V24.048C62.4802 24.664 62.3562 25.212 62.1082 25.692C61.8602 26.18 61.4882 26.564 60.9922 26.844C60.4962 27.132 59.8962 27.276 59.1922 27.276C58.2482 27.276 57.4722 27.056 56.8642 26.616C56.2642 26.176 55.9242 25.576 55.8442 24.816H57.5122C57.6002 25.12 57.7882 25.36 58.0762 25.536C58.3722 25.72 58.7282 25.812 59.1442 25.812C59.6322 25.812 60.0282 25.664 60.3322 25.368C60.6362 25.08 60.7882 24.64 60.7882 24.048V23.016C60.5722 23.328 60.2722 23.588 59.8882 23.796C59.5122 24.004 59.0802 24.108 58.5922 24.108C58.0322 24.108 57.5202 23.964 57.0562 23.676C56.5922 23.388 56.2242 22.984 55.9522 22.464C55.6882 21.936 55.5562 21.332 55.5562 20.652C55.5562 19.98 55.6882 19.384 55.9522 18.864C56.2242 18.344 56.5882 17.944 57.0442 17.664C57.5082 17.384 58.0242 17.244 58.5922 17.244ZM60.7882 20.676C60.7882 20.268 60.7082 19.92 60.5482 19.632C60.3882 19.336 60.1722 19.112 59.9002 18.96C59.6282 18.8 59.3362 18.72 59.0242 18.72C58.7122 18.72 58.4242 18.796 58.1602 18.948C57.8962 19.1 57.6802 19.324 57.5122 19.62C57.3522 19.908 57.2722 20.252 57.2722 20.652C57.2722 21.052 57.3522 21.404 57.5122 21.708C57.6802 22.004 57.8962 22.232 58.1602 22.392C58.4322 22.552 58.7202 22.632 59.0242 22.632C59.3362 22.632 59.6282 22.556 59.9002 22.404C60.1722 22.244 60.3882 22.02 60.5482 21.732C60.7082 21.436 60.7882 21.084 60.7882 20.676ZM64.973 16.56C64.677 16.56 64.429 16.468 64.229 16.284C64.037 16.092 63.941 15.856 63.941 15.576C63.941 15.296 64.037 15.064 64.229 14.88C64.429 14.688 64.677 14.592 64.973 14.592C65.269 14.592 65.513 14.688 65.705 14.88C65.905 15.064 66.005 15.296 66.005 15.576C66.005 15.856 65.905 16.092 65.705 16.284C65.513 16.468 65.269 16.56 64.973 16.56ZM65.801 17.352V24H64.121V17.352H65.801ZM71.1448 17.256C71.9368 17.256 72.5768 17.508 73.0648 18.012C73.5528 18.508 73.7968 19.204 73.7968 20.1V24H72.1168V20.328C72.1168 19.8 71.9848 19.396 71.7208 19.116C71.4568 18.828 71.0968 18.684 70.6408 18.684C70.1768 18.684 69.8088 18.828 69.5368 19.116C69.2728 19.396 69.1408 19.8 69.1408 20.328V24H67.4608V17.352H69.1408V18.18C69.3648 17.892 69.6488 17.668 69.9928 17.508C70.3448 17.34 70.7288 17.256 71.1448 17.256Z" fill="#162C2A"/>
</svg>
