<svg width="24" height="24" viewBox="0 0 24 24" fill="none" xmlns="http://www.w3.org/2000/svg">
<path d="M11.978 15.7124C12.7682 16.1709 13.7697 16.0409 14.4157 15.3938L15.5387 14.2708H15.5398C16.1348 13.6746 16.9435 13.3397 17.7868 13.3397C18.6301 13.3397 19.4387 13.6746 20.0349 14.2708L23.0689 17.3048V17.3037C24.31 18.5459 24.31 20.5587 23.0689 21.7999C21.9731 22.9055 20.5585 23.6382 19.0237 23.8973C17.49 24.1552 15.9128 23.9244 14.5157 23.2382C11.5479 21.7749 8.83357 19.8465 6.4741 17.5259C4.1534 15.1662 2.22523 12.4521 0.761763 9.48435C0.0756222 8.08715 -0.155246 6.50997 0.102733 4.9763C0.361791 3.44147 1.09452 2.0269 2.20014 0.931106C2.79629 0.334954 3.60492 0 4.44823 0C5.29153 0 6.10013 0.334926 6.69631 0.931106L9.72924 3.96514C10.9714 5.20626 10.9714 7.21923 9.72924 8.46014L8.60628 9.58311C6.63243 11.6838 10.2734 14.6689 11.9783 15.7128L11.978 15.7124Z" fill="white"/>
</svg>
