<svg width="16" height="16" viewBox="0 0 16 16" fill="none" xmlns="http://www.w3.org/2000/svg">
<path d="M7.4349 15.0988C9.30942 15.0988 11.022 14.4 12.3305 13.2515L14.8651 15.5899C14.9953 15.7096 15.1599 15.7703 15.3227 15.7703C15.5049 15.7703 15.6853 15.6981 15.8208 15.552C16.0734 15.2774 16.0576 14.8489 15.7821 14.5972L13.2633 12.2712C14.2674 11.0031 14.8694 9.40324 14.8694 7.6642C14.8694 3.56407 11.5348 0.229492 7.4347 0.229492C3.33458 0.229492 0 3.56407 0 7.6642C0 11.7643 3.33458 15.0989 7.4347 15.0989L7.4349 15.0988ZM7.4349 1.58114C10.7898 1.58114 13.5178 4.30922 13.5178 7.66408C13.5178 11.0189 10.7898 13.747 7.4349 13.747C4.08005 13.747 1.35196 11.0189 1.35196 7.66408C1.35196 4.30922 4.08005 1.58114 7.4349 1.58114Z" fill="#162C2A"/>
</svg>
