<svg width="36" height="36" viewBox="0 0 36 36" fill="none" xmlns="http://www.w3.org/2000/svg">
<path d="M18 0C8.05824 0 0 8.05824 0 18C0 27.9418 8.05824 36 18 36C27.9418 36 36 27.9418 36 18C36 8.05824 27.9418 0 18 0ZM18 30.616C11.0329 30.616 5.38395 24.9684 5.38395 18C5.38395 11.0329 11.0316 5.38395 18 5.38395C24.9671 5.38395 30.616 11.0316 30.616 18C30.616 24.9671 24.9671 30.616 18 30.616Z" fill="#FFC33E"/>
<path d="M18.5833 11.1831L20.4299 14.9246L24.5475 15.5224C25.0843 15.6012 25.298 16.2601 24.9107 16.6377L21.9295 19.5435L22.635 23.6545C22.7266 24.1849 22.1689 24.5899 21.6932 24.3392L17.9999 22.3977L14.3067 24.3392C13.831 24.5899 13.2749 24.1849 13.3649 23.6545L14.0704 19.5435L11.0828 16.6313C10.6987 16.2553 10.9108 15.6028 11.4428 15.524L15.5714 14.9229L17.4181 11.1815C17.6575 10.701 18.3455 10.7009 18.5833 11.1831Z" fill="#FFC33E"/>
</svg>
