<svg width="16" height="14" viewBox="0 0 16 14" fill="none" xmlns="http://www.w3.org/2000/svg">
<path d="M15.2943 6.94043C14.9037 6.94043 14.5884 7.25568 14.5884 7.64632V10.9544C14.5884 11.8551 13.854 12.5877 12.9551 12.5877H3.04508C2.14617 12.5877 1.41179 11.8533 1.41179 10.9544V7.64632C1.41179 7.25568 1.09653 6.94043 0.705893 6.94043C0.315252 6.94043 0 7.25568 0 7.64632V10.9544C0 12.6327 1.36675 13.9994 3.04499 13.9994H12.9531C14.6333 13.9994 16 12.6326 16 10.9544V7.64632C16 7.25568 15.6849 6.94043 15.2943 6.94043Z" fill="#162C2A"/>
<path d="M8.70583 2.40811L11.5009 5.20321C11.6379 5.34292 11.819 5.41093 12 5.41093C12.1811 5.41093 12.3622 5.34292 12.4991 5.20413C12.7749 4.92838 12.7749 4.48169 12.4991 4.20687L8.49905 0.206809C8.22331 -0.0689363 7.77662 -0.0689363 7.50179 0.206809L3.50173 4.20687C3.22599 4.48261 3.22599 4.9293 3.50173 5.20413C3.77748 5.47987 4.22416 5.47987 4.49899 5.20413L7.29409 2.40809V9.64631C7.29409 10.037 7.60934 10.3522 7.99998 10.3522C8.39063 10.3522 8.70588 10.037 8.70588 9.64631L8.70583 2.40811Z" fill="#162C2A"/>
</svg>
