<svg width="22" height="24" viewBox="0 0 22 24" fill="none" xmlns="http://www.w3.org/2000/svg">
<path fill-rule="evenodd" clip-rule="evenodd" d="M2.38552e-05 1.01408C2.38552e-05 0.454241 0.454265 0 1.01411 0C2.59202 0 3.92168 1.05765 4.33627 2.50218L16.9978 3.40667C19.5409 3.58757 21.3962 5.88772 21.0355 8.41117L20.7424 10.4618C20.4334 12.6272 18.5795 14.2342 16.3916 14.2342H4.46939V15.3988C4.46939 16.3323 5.226 17.0889 6.15953 17.0889H16.8828C17.7991 17.0889 18.6772 17.4533 19.3256 18.1017C19.9739 18.7487 20.3383 19.6281 20.3383 20.5444C20.3383 21.4608 19.9739 22.3402 19.3256 22.9886C18.6772 23.6356 17.7992 24 16.8828 24C15.9664 24 15.087 23.6356 14.4387 22.9886C13.7916 22.3402 13.4272 21.4608 13.4272 20.5444C13.4272 20.048 13.5342 19.5621 13.7362 19.1171H6.60212C6.80415 19.562 6.9111 20.048 6.9111 20.5444C6.9111 21.4608 6.54668 22.3402 5.89834 22.9886C5.25132 23.6356 4.37194 24 3.45555 24C2.53919 24 1.65978 23.6356 1.01145 22.9886C0.364427 22.3402 0 21.4608 0 20.5444C0 19.6281 0.364427 18.7487 1.01145 18.1017C1.52112 17.592 2.1721 17.2579 2.87191 17.1391C2.59727 16.6201 2.44147 16.0273 2.44147 15.3988V3.45558C2.44147 2.6673 1.80239 2.0282 1.01408 2.0282C0.454241 2.0282 2.38552e-05 1.57392 2.38552e-05 1.01408ZM4.46976 12.2058H16.392C17.5698 12.2058 18.568 11.3409 18.7344 10.175L19.0275 8.1231C19.2216 6.76572 18.2234 5.52715 16.8541 5.42943L4.46982 4.54474L4.46976 12.2058ZM16.8831 19.1168C16.5042 19.1168 16.1411 19.2673 15.873 19.5354C15.6063 19.8034 15.4557 20.1652 15.4557 20.5442C15.4557 20.9231 15.6063 21.2863 15.873 21.553C16.1411 21.821 16.5042 21.9716 16.8831 21.9716C17.2608 21.9716 17.6239 21.821 17.8919 21.553C18.16 21.2863 18.3105 20.9231 18.3105 20.5442C18.3105 20.1652 18.16 19.8034 17.8919 19.5354C17.6239 19.2673 17.2608 19.1168 16.8831 19.1168ZM3.45568 19.1168C3.07671 19.1168 2.7136 19.2673 2.44687 19.5354C2.17882 19.8034 2.02829 20.1652 2.02829 20.5442C2.02829 20.9231 2.17882 21.2863 2.44687 21.553C2.71359 21.821 3.07671 21.9716 3.45568 21.9716C3.83464 21.9716 4.19643 21.821 4.46448 21.553C4.73253 21.2863 4.88306 20.9231 4.88306 20.5442C4.88306 20.1652 4.73254 19.8034 4.46448 19.5354C4.19643 19.2673 3.83464 19.1168 3.45568 19.1168Z" fill="#162C2A"/>
</svg>
